<?xml version="1.0" encoding="UTF-8"?>
<svg width="700pt" height="700pt" version="1.1" viewBox="0 0 700 700" xmlns="http://www.w3.org/2000/svg" xmlns:xlink="http://www.w3.org/1999/xlink">
 <defs>
  <symbol id="u" overflow="visible">
   <path d="m2.2188-0.125c-0.11719 0.054688-0.23438 0.09375-0.35938 0.125s-0.25781 0.046875-0.39062 0.046875c-0.39844 0-0.71484-0.10938-0.95312-0.32812-0.23047-0.22656-0.34375-0.53516-0.34375-0.92188 0-0.38281 0.11328-0.6875 0.34375-0.90625 0.23828-0.22656 0.55469-0.34375 0.95312-0.34375 0.13281 0 0.26562 0.015625 0.39062 0.046875 0.125 0.023438 0.24219 0.0625 0.35938 0.125v0.5c-0.11719-0.070312-0.23047-0.125-0.34375-0.15625-0.11719-0.039062-0.23047-0.0625-0.34375-0.0625-0.23047 0-0.40625 0.074219-0.53125 0.21875-0.125 0.13672-0.1875 0.32812-0.1875 0.57812s0.0625 0.44922 0.1875 0.59375c0.125 0.13672 0.30078 0.20312 0.53125 0.20312 0.11328 0 0.22656-0.015625 0.34375-0.046875 0.11328-0.039063 0.22656-0.097656 0.34375-0.17188z"/>
  </symbol>
  <symbol id="f" overflow="visible">
   <path d="m1.625-1.3125c-0.054688-0.03125-0.10547-0.050781-0.15625-0.0625-0.054688-0.007812-0.10156-0.015625-0.14062-0.015625-0.15625 0-0.27734 0.054687-0.35938 0.15625-0.074219 0.09375-0.10938 0.23047-0.10938 0.40625v0.82812h-0.57812v-1.8125h0.57812v0.29688c0.070313-0.11328 0.15625-0.19531 0.25-0.25 0.10156-0.0625 0.21875-0.09375 0.34375-0.09375 0.019531 0 0.039063 0.007813 0.0625 0.015625h0.10938z"/>
  </symbol>
  <symbol id="b" overflow="visible">
   <path d="m2.0938-0.90625v0.15625h-1.3594c0.007813 0.13672 0.054687 0.24219 0.14062 0.3125 0.082031 0.0625 0.20312 0.09375 0.35938 0.09375 0.125 0 0.25-0.015625 0.375-0.046875 0.125-0.039063 0.25391-0.097656 0.39062-0.17188v0.45312c-0.13672 0.054688-0.27344 0.089844-0.40625 0.10938-0.13672 0.03125-0.27734 0.046875-0.42188 0.046875-0.32422 0-0.57812-0.082031-0.76562-0.25-0.17969-0.16406-0.26562-0.39844-0.26562-0.70312 0-0.28906 0.085937-0.51953 0.26562-0.6875 0.17578-0.17578 0.42188-0.26562 0.73438-0.26562 0.28906 0 0.51953 0.089844 0.6875 0.26562 0.17578 0.16797 0.26562 0.39844 0.26562 0.6875zm-0.60938-0.20312c0-0.10156-0.03125-0.1875-0.09375-0.25-0.0625-0.070313-0.14844-0.10938-0.25-0.10938-0.11719 0-0.21094 0.03125-0.28125 0.09375-0.0625 0.0625-0.10547 0.15234-0.125 0.26562z"/>
  </symbol>
  <symbol id="a" overflow="visible">
   <path d="m1.0938-0.8125c-0.125 0-0.21875 0.023438-0.28125 0.0625-0.0625 0.042969-0.09375 0.10156-0.09375 0.17188 0 0.074219 0.023438 0.13281 0.078125 0.17188 0.050781 0.042969 0.11719 0.0625 0.20312 0.0625 0.11328 0 0.20703-0.035156 0.28125-0.10938 0.070312-0.082031 0.10938-0.17969 0.10938-0.29688v-0.0625zm0.875-0.21875v1.0312h-0.57812v-0.26562c-0.074219 0.10547-0.16406 0.18359-0.26562 0.23438-0.09375 0.050781-0.21094 0.078125-0.34375 0.078125-0.1875 0-0.34375-0.050781-0.46875-0.15625-0.11719-0.11328-0.17188-0.25781-0.17188-0.4375 0-0.20703 0.070313-0.35938 0.21875-0.45312 0.14453-0.10156 0.375-0.15625 0.6875-0.15625h0.34375v-0.046875c0-0.09375-0.039063-0.16016-0.10938-0.20312-0.074219-0.039062-0.1875-0.0625-0.34375-0.0625-0.11719 0-0.23047 0.015625-0.34375 0.046875-0.10547 0.023437-0.20312 0.054687-0.29688 0.09375v-0.4375c0.125-0.03125 0.25-0.050781 0.375-0.0625 0.125-0.019531 0.25-0.03125 0.375-0.03125 0.33203 0 0.56641 0.070313 0.70312 0.20312 0.14453 0.125 0.21875 0.33594 0.21875 0.625z"/>
  </symbol>
  <symbol id="e" overflow="visible">
   <path d="m0.90625-2.3281v0.51562h0.59375v0.42188h-0.59375v0.76562c0 0.085938 0.015625 0.14062 0.046875 0.17188 0.039063 0.023437 0.10938 0.03125 0.20312 0.03125h0.29688v0.42188h-0.5c-0.21875 0-0.38281-0.046875-0.48438-0.14062-0.09375-0.09375-0.14062-0.25391-0.14062-0.48438v-0.76562h-0.28125v-0.42188h0.28125v-0.51562z"/>
  </symbol>
  <symbol id="k" overflow="visible">
   <path d="m1.5156-1.5469v-0.96875h0.57812v2.5156h-0.57812v-0.26562c-0.085937 0.10547-0.17188 0.18359-0.26562 0.23438s-0.21094 0.078125-0.34375 0.078125c-0.21875 0-0.40234-0.085938-0.54688-0.26562-0.13672-0.17578-0.20312-0.40625-0.20312-0.6875s0.066406-0.50781 0.20312-0.6875c0.14453-0.17578 0.32812-0.26562 0.54688-0.26562 0.125 0 0.23438 0.027344 0.32812 0.078125 0.10156 0.054688 0.19531 0.13281 0.28125 0.23438zm-0.39062 1.1719c0.125 0 0.21875-0.039062 0.28125-0.125 0.070312-0.09375 0.10938-0.22656 0.10938-0.40625 0-0.16406-0.039063-0.29688-0.10938-0.39062-0.0625-0.09375-0.15625-0.14062-0.28125-0.14062s-0.21875 0.046875-0.28125 0.14062-0.09375 0.22656-0.09375 0.39062c0 0.17969 0.03125 0.3125 0.09375 0.40625 0.0625 0.085938 0.15625 0.125 0.28125 0.125z"/>
  </symbol>
  <symbol id="j" overflow="visible">
   <path d="m1.25-0.375c0.11328 0 0.20312-0.039062 0.26562-0.125 0.070313-0.09375 0.10938-0.22656 0.10938-0.40625 0-0.16406-0.039062-0.29688-0.10938-0.39062-0.0625-0.09375-0.15234-0.14062-0.26562-0.14062-0.125 0-0.22656 0.046875-0.29688 0.14062-0.0625 0.09375-0.09375 0.22656-0.09375 0.39062 0 0.17969 0.03125 0.3125 0.09375 0.40625 0.070313 0.085938 0.17188 0.125 0.29688 0.125zm-0.39062-1.1719c0.082031-0.10156 0.17188-0.17969 0.26562-0.23438 0.09375-0.050781 0.20312-0.078125 0.32812-0.078125 0.22656 0 0.41016 0.089844 0.54688 0.26562 0.14453 0.17969 0.21875 0.40625 0.21875 0.6875s-0.074219 0.51172-0.21875 0.6875c-0.13672 0.17969-0.32031 0.26562-0.54688 0.26562-0.125 0-0.23438-0.027344-0.32812-0.078125s-0.18359-0.12891-0.26562-0.23438v0.26562h-0.57812v-2.5156h0.57812z"/>
  </symbol>
  <symbol id="i" overflow="visible">
   <path d="m0.046875-1.8125h0.57812l0.48438 1.2344 0.40625-1.2344h0.57812l-0.75 1.9844c-0.085938 0.19531-0.17969 0.33594-0.28125 0.42188-0.09375 0.082031-0.22656 0.125-0.39062 0.125h-0.34375v-0.39062h0.1875c0.09375 0 0.16016-0.015625 0.20312-0.046875 0.050781-0.03125 0.085938-0.085938 0.10938-0.15625l0.015625-0.0625z"/>
  </symbol>
  <symbol id="h" overflow="visible">
   <path d="m1.9844-2.3438v0.51562c-0.13672-0.0625-0.26562-0.10156-0.39062-0.125-0.125-0.03125-0.24609-0.046875-0.35938-0.046875-0.14844 0-0.25781 0.023438-0.32812 0.0625-0.074219 0.03125-0.10938 0.09375-0.10938 0.1875 0 0.0625 0.023437 0.11719 0.078125 0.15625 0.050781 0.03125 0.14062 0.058594 0.26562 0.078125l0.26562 0.0625c0.25781 0.054687 0.44531 0.13672 0.5625 0.25 0.11328 0.10547 0.17188 0.25781 0.17188 0.45312 0 0.27344-0.078125 0.47656-0.23438 0.60938-0.15625 0.125-0.39844 0.1875-0.71875 0.1875-0.15625 0-0.3125-0.015625-0.46875-0.046875s-0.30859-0.070312-0.45312-0.125v-0.53125c0.14453 0.085938 0.28906 0.14844 0.4375 0.1875 0.14453 0.042969 0.28516 0.0625 0.42188 0.0625 0.13281 0 0.23828-0.019531 0.3125-0.0625 0.070312-0.050781 0.10938-0.11719 0.10938-0.20312 0-0.070313-0.027344-0.12891-0.078125-0.17188-0.054688-0.039062-0.15234-0.078125-0.29688-0.10938l-0.23438-0.046875c-0.24219-0.050781-0.41797-0.13281-0.53125-0.25-0.11719-0.11328-0.17188-0.26562-0.17188-0.45312 0-0.25 0.078125-0.4375 0.23438-0.5625s0.37891-0.1875 0.67188-0.1875c0.13281 0 0.26953 0.011719 0.40625 0.03125 0.14453 0.011719 0.28906 0.039063 0.4375 0.078125z"/>
  </symbol>
  <symbol id="g" overflow="visible">
   <path d="m0.26562-0.70312v-1.1094h0.57812v0.1875 0.375 0.28125 0.32812c0.007812 0.0625 0.023438 0.10547 0.046875 0.125 0.019531 0.042969 0.046875 0.074219 0.078125 0.09375 0.039062 0.023437 0.085938 0.03125 0.14062 0.03125 0.125 0 0.21875-0.046875 0.28125-0.14062 0.070313-0.09375 0.10938-0.22266 0.10938-0.39062v-0.89062h0.57812v1.8125h-0.57812v-0.26562c-0.085938 0.10547-0.17969 0.18359-0.28125 0.23438-0.09375 0.050781-0.19922 0.078125-0.3125 0.078125-0.21094 0-0.37109-0.0625-0.48438-0.1875-0.10547-0.13281-0.15625-0.32031-0.15625-0.5625z"/>
  </symbol>
  <symbol id="t" overflow="visible">
   <path d="m1.6875-1.75v0.4375c-0.125-0.050781-0.24609-0.085938-0.35938-0.10938-0.11719-0.03125-0.22656-0.046875-0.32812-0.046875-0.10547 0-0.18359 0.015625-0.23438 0.046875-0.054687 0.023437-0.078125 0.0625-0.078125 0.125 0 0.042969 0.015625 0.078125 0.046875 0.10938 0.039063 0.023438 0.11328 0.039062 0.21875 0.046875l0.10938 0.015625c0.28906 0.042969 0.48828 0.10547 0.59375 0.1875 0.10156 0.085938 0.15625 0.21875 0.15625 0.40625s-0.074219 0.33594-0.21875 0.4375c-0.13672 0.09375-0.34375 0.14062-0.625 0.14062-0.125 0-0.25-0.011719-0.375-0.03125-0.125-0.019531-0.25781-0.046875-0.39062-0.078125v-0.4375c0.11328 0.054688 0.22656 0.09375 0.34375 0.125 0.125 0.023438 0.25 0.03125 0.375 0.03125 0.11328 0 0.19531-0.015625 0.25-0.046875 0.0625-0.03125 0.09375-0.078125 0.09375-0.14062 0-0.050781-0.023437-0.085938-0.0625-0.10938-0.042969-0.019531-0.12109-0.039063-0.23438-0.0625l-0.09375-0.015625c-0.26172-0.03125-0.44531-0.085938-0.54688-0.17188-0.10547-0.082031-0.15625-0.21875-0.15625-0.40625s0.0625-0.32812 0.1875-0.42188c0.13281-0.09375 0.33594-0.14062 0.60938-0.14062 0.11328 0 0.22656 0.011719 0.34375 0.03125 0.11328 0.011719 0.23828 0.039063 0.375 0.078125z"/>
  </symbol>
  <symbol id="d" overflow="visible">
   <path d="m2.0938-1.1094v1.1094h-0.57812v-0.84375c0-0.15625-0.007813-0.25781-0.015625-0.3125 0-0.0625-0.011719-0.10938-0.03125-0.14062-0.023438-0.039063-0.054688-0.070313-0.09375-0.09375-0.042969-0.019531-0.085938-0.03125-0.125-0.03125-0.125 0-0.22656 0.046875-0.29688 0.14062-0.0625 0.09375-0.09375 0.22656-0.09375 0.39062v0.89062h-0.57812v-1.8125h0.57812v0.26562c0.082031-0.10156 0.17188-0.17969 0.26562-0.23438 0.10156-0.050781 0.21094-0.078125 0.32812-0.078125 0.21875 0 0.37891 0.070313 0.48438 0.20312 0.10156 0.125 0.15625 0.30859 0.15625 0.54688z"/>
  </symbol>
  <symbol id="c" overflow="visible">
   <path d="m1.1406-1.4375c-0.125 0-0.22656 0.046875-0.29688 0.14062-0.0625 0.085937-0.09375 0.21484-0.09375 0.39062 0 0.17969 0.03125 0.3125 0.09375 0.40625 0.070312 0.09375 0.17188 0.14062 0.29688 0.14062s0.21875-0.046875 0.28125-0.14062c0.070313-0.09375 0.10938-0.22656 0.10938-0.40625 0-0.17578-0.039062-0.30469-0.10938-0.39062-0.0625-0.09375-0.15625-0.14062-0.28125-0.14062zm0-0.42188c0.3125 0 0.55469 0.089844 0.73438 0.26562 0.17578 0.16797 0.26562 0.39844 0.26562 0.6875 0 0.30469-0.089844 0.53906-0.26562 0.70312-0.17969 0.16797-0.42188 0.25-0.73438 0.25s-0.55859-0.082031-0.73438-0.25c-0.17969-0.16406-0.26562-0.39844-0.26562-0.70312 0-0.28906 0.085937-0.51953 0.26562-0.6875 0.17578-0.17578 0.42188-0.26562 0.73438-0.26562z"/>
  </symbol>
  <symbol id="s" overflow="visible">
   <path d="m0.046875-1.8125h0.57812l0.45312 1.25 0.45312-1.25h0.57812l-0.71875 1.8125h-0.625z"/>
  </symbol>
  <symbol id="r" overflow="visible">
   <path d="m1.4688-2.5156v0.375h-0.3125c-0.085938 0-0.14062 0.015625-0.17188 0.046875s-0.046875 0.085938-0.046875 0.15625v0.125h0.48438v0.42188h-0.48438v1.3906h-0.59375v-1.3906h-0.28125v-0.42188h0.28125v-0.125c0-0.19531 0.054688-0.34375 0.17188-0.4375 0.11328-0.09375 0.28516-0.14062 0.51562-0.14062z"/>
  </symbol>
  <symbol id="q" overflow="visible">
   <path d="m1.9531-1.5156c0.070313-0.10156 0.16016-0.1875 0.26562-0.25 0.10156-0.0625 0.21094-0.09375 0.32812-0.09375 0.20703 0 0.36328 0.070313 0.46875 0.20312 0.11328 0.125 0.17188 0.30859 0.17188 0.54688v1.1094h-0.57812v-0.9375-0.046875-0.0625c0-0.13281-0.023437-0.22656-0.0625-0.28125-0.03125-0.0625-0.089844-0.09375-0.17188-0.09375-0.11719 0-0.20312 0.046875-0.26562 0.14062-0.054687 0.09375-0.085937 0.22656-0.09375 0.39062v0.89062h-0.57812v-0.9375c0-0.20703-0.015625-0.33594-0.046875-0.39062-0.03125-0.0625-0.09375-0.09375-0.1875-0.09375-0.11719 0-0.20312 0.046875-0.26562 0.14062-0.054688 0.09375-0.078125 0.22656-0.078125 0.39062v0.89062h-0.57812v-1.8125h0.57812v0.26562c0.070313-0.10156 0.14844-0.17969 0.23438-0.23438 0.09375-0.050781 0.19531-0.078125 0.3125-0.078125 0.125 0 0.23438 0.03125 0.32812 0.09375s0.16406 0.14844 0.21875 0.25z"/>
  </symbol>
  <symbol id="p" overflow="visible">
   <path d="m2.0938-1.1094v1.1094h-0.57812v-0.84375c0-0.15625-0.007813-0.25781-0.015625-0.3125 0-0.0625-0.011719-0.10938-0.03125-0.14062-0.023438-0.039063-0.054688-0.070313-0.09375-0.09375-0.042969-0.019531-0.085938-0.03125-0.125-0.03125-0.125 0-0.22656 0.046875-0.29688 0.14062-0.0625 0.09375-0.09375 0.22656-0.09375 0.39062v0.89062h-0.57812v-2.5156h0.57812v0.96875c0.082031-0.10156 0.17188-0.17969 0.26562-0.23438 0.10156-0.050781 0.21094-0.078125 0.32812-0.078125 0.21875 0 0.37891 0.070313 0.48438 0.20312 0.10156 0.125 0.15625 0.30859 0.15625 0.54688z"/>
  </symbol>
  <symbol id="o" overflow="visible">
   <path d="m0.29688-2.4219h0.70312l0.875 1.6562v-1.6562h0.59375v2.4219h-0.70312l-0.875-1.6562v1.6562h-0.59375z"/>
  </symbol>
  <symbol id="n" overflow="visible">
   <path d="m0.29688-2.4219h1.0469c0.30078 0 0.53516 0.074219 0.70312 0.21875 0.16406 0.13672 0.25 0.32812 0.25 0.57812s-0.085937 0.44531-0.25 0.57812c-0.16797 0.13672-0.40234 0.20312-0.70312 0.20312h-0.42188v0.84375h-0.625zm0.625 0.45312v0.67188h0.34375c0.125 0 0.21875-0.023437 0.28125-0.078125 0.070313-0.0625 0.10938-0.14453 0.10938-0.25 0-0.10156-0.039062-0.1875-0.10938-0.25-0.0625-0.0625-0.15625-0.09375-0.28125-0.09375z"/>
  </symbol>
  <symbol id="m" overflow="visible">
   <path d="m0.28125-1.8125h0.57812v1.7812c0 0.23828-0.058594 0.42188-0.17188 0.54688-0.11719 0.13281-0.28906 0.20312-0.51562 0.20312h-0.28125v-0.39062h0.09375c0.11328 0 0.19141-0.027344 0.23438-0.078125 0.039062-0.042969 0.0625-0.13672 0.0625-0.28125zm0-0.70312h0.57812v0.46875h-0.57812z"/>
  </symbol>
  <symbol id="l" overflow="visible">
   <path d="m1.7344-1.75v0.46875c-0.074219-0.050781-0.15234-0.085938-0.23438-0.10938-0.074219-0.03125-0.15234-0.046875-0.23438-0.046875-0.16797 0-0.29688 0.046875-0.39062 0.14062-0.085938 0.09375-0.125 0.22656-0.125 0.39062 0 0.16797 0.039062 0.30469 0.125 0.40625 0.09375 0.09375 0.22266 0.14062 0.39062 0.14062 0.082031 0 0.16406-0.015625 0.25-0.046875 0.082031-0.03125 0.15625-0.070312 0.21875-0.125v0.48438c-0.085937 0.03125-0.17188 0.050781-0.26562 0.0625-0.09375 0.019531-0.1875 0.03125-0.28125 0.03125-0.32422 0-0.57812-0.082031-0.76562-0.25-0.1875-0.16406-0.28125-0.39844-0.28125-0.70312 0-0.30078 0.09375-0.53516 0.28125-0.70312 0.1875-0.16406 0.44141-0.25 0.76562-0.25 0.09375 0 0.1875 0.011719 0.28125 0.03125 0.09375 0.011719 0.17969 0.039063 0.26562 0.078125z"/>
  </symbol>
 </defs>
 <g>
  <path d="m290.32 123.11c21.848-70.602 122.85-70.602 144.71 0 65.641-10.543 79.285 89.238 14.434 97.699l-12.383 117.62h-148.81l-12.375-117.62c-64.859-8.4609-51.215-108.24 14.426-97.699zm205.14 214.33-128.62 128.62 23.797 23.793 128.62-128.62 9.2148 9.207c3.3281 3.3398 9.0273 1.7188 13.996-1.8789l59.516-43.07c9.9062-7.1914 10.426-21.332 3.7578-27.992l-46.543-46.551c-6.6602-6.668-20.809-6.1445-27.984 3.7695l-43.078 59.508c-3.6055 4.9609-5.2188 10.664-1.8789 13.996l9.207 9.2148zm-379.64-83.695c34.652-34.652 90.812-34.66 125.46-0.007812 30.352 30.352 34.117 77.227 11.289 111.67l99.359 99.359-25.102 25.094-99.352-99.352c-34.453 22.812-81.316 19.055-111.67-11.297-34.652-34.652-34.645-90.812 0.007812-125.46zm105.79 105.79c7.832-7.8164 19.723 4.0742 11.906 11.906-30.359 30.352-79.582 30.352-109.94 0-30.328-30.332-30.32-79.602 0.007812-109.93 30.332-30.332 79.602-30.34 109.93-0.007812 7.8164 7.8242-4.0742 19.719-11.906 11.898-23.797-23.805-62.324-23.805-86.125 0.007812-23.812 23.797-23.812 62.324-0.007813 86.125 23.777 23.793 62.352 23.793 86.129 0zm66.656-12.73h148.81v20.191h-148.81z" fill-rule="evenodd"/>
  <use x="70" y="569.921875" xlink:href="#u"/>
  <use x="72.425781" y="569.921875" xlink:href="#f"/>
  <use x="74.058594" y="569.921875" xlink:href="#b"/>
  <use x="76.300781" y="569.921875" xlink:href="#a"/>
  <use x="78.53125" y="569.921875" xlink:href="#e"/>
  <use x="80.113281" y="569.921875" xlink:href="#b"/>
  <use x="82.355469" y="569.921875" xlink:href="#k"/>
  <use x="85.875" y="569.921875" xlink:href="#j"/>
  <use x="88.242188" y="569.921875" xlink:href="#i"/>
  <use x="91.550781" y="569.921875" xlink:href="#h"/>
  <use x="93.929688" y="569.921875" xlink:href="#g"/>
  <use x="96.285156" y="569.921875" xlink:href="#t"/>
  <use x="98.253906" y="569.921875" xlink:href="#a"/>
  <use x="100.484375" y="569.921875" xlink:href="#d"/>
  <use x="102.839844" y="569.921875" xlink:href="#d"/>
  <use x="105.195312" y="569.921875" xlink:href="#a"/>
  <use x="107.425781" y="569.921875" xlink:href="#d"/>
  <use x="109.78125" y="569.921875" xlink:href="#c"/>
  <use x="112.050781" y="569.921875" xlink:href="#s"/>
  <use x="114.207031" y="569.921875" xlink:href="#a"/>
  <use x="70" y="573.226562" xlink:href="#r"/>
  <use x="71.4375" y="573.226562" xlink:href="#f"/>
  <use x="73.070312" y="573.226562" xlink:href="#c"/>
  <use x="75.339844" y="573.226562" xlink:href="#q"/>
  <use x="79.9375" y="573.226562" xlink:href="#e"/>
  <use x="81.519531" y="573.226562" xlink:href="#p"/>
  <use x="83.875" y="573.226562" xlink:href="#b"/>
  <use x="87.269531" y="573.226562" xlink:href="#o"/>
  <use x="90.035156" y="573.226562" xlink:href="#c"/>
  <use x="92.308594" y="573.226562" xlink:href="#g"/>
  <use x="94.664062" y="573.226562" xlink:href="#d"/>
  <use x="98.167969" y="573.226562" xlink:href="#n"/>
  <use x="100.59375" y="573.226562" xlink:href="#f"/>
  <use x="102.222656" y="573.226562" xlink:href="#c"/>
  <use x="104.496094" y="573.226562" xlink:href="#m"/>
  <use x="105.628906" y="573.226562" xlink:href="#b"/>
  <use x="107.871094" y="573.226562" xlink:href="#l"/>
  <use x="109.832031" y="573.226562" xlink:href="#e"/>
 </g>
</svg>
